<mxfile host="app.diagrams.net" modified="2021-12-08T05:56:52.241Z" agent="5.0 (Windows NT 10.0; Win64; x64) AppleWebKit/537.36 (KHTML, like Gecko) Chrome/89.0.4389.114 Safari/537.36" etag="aLw9q3EsURnxanaVnM8e" version="14.8.0" type="github">
  <diagram id="QBI_Fe0tRsOMxTtnOKoi" name="Page-1">
    <mxGraphModel dx="764" dy="458" grid="1" gridSize="10" guides="1" tooltips="1" connect="1" arrows="1" fold="1" page="1" pageScale="1" pageWidth="827" pageHeight="1169" math="0" shadow="0">
      <root>
        <mxCell id="0" />
        <mxCell id="1" parent="0" />
        <mxCell id="l4oaAC5JZiK1c0ESy4eB-4" value="" style="rounded=0;whiteSpace=wrap;html=1;dashed=1;strokeColor=#737373;dashPattern=1 1;strokeWidth=1;" vertex="1" parent="1">
          <mxGeometry x="101" y="300" width="470" height="360" as="geometry" />
        </mxCell>
        <mxCell id="l4oaAC5JZiK1c0ESy4eB-5" value="" style="rounded=0;whiteSpace=wrap;html=1;fillColor=#fff2cc;strokeColor=#d6b656;" vertex="1" parent="1">
          <mxGeometry x="130" y="600" width="420" height="40" as="geometry" />
        </mxCell>
        <mxCell id="l4oaAC5JZiK1c0ESy4eB-7" value="&lt;b&gt;结果召回&lt;/b&gt;" style="text;html=1;strokeColor=none;fillColor=none;align=center;verticalAlign=middle;whiteSpace=wrap;rounded=0;strokeWidth=1;" vertex="1" parent="1">
          <mxGeometry x="130" y="610" width="60" height="20" as="geometry" />
        </mxCell>
        <mxCell id="l4oaAC5JZiK1c0ESy4eB-10" value="&lt;font style=&quot;font-size: 1px;&quot;&gt;类目偏好&lt;/font&gt;" style="rounded=1;whiteSpace=wrap;html=1;strokeWidth=1;fillColor=#dae8fc;strokeColor=#6c8ebf;fontSize=1;" vertex="1" parent="1">
          <mxGeometry x="232" y="607.5" width="70" height="25" as="geometry" />
        </mxCell>
        <mxCell id="l4oaAC5JZiK1c0ESy4eB-11" value="&lt;font style=&quot;font-size: 1px&quot;&gt;deepwalk&lt;/font&gt;" style="rounded=1;whiteSpace=wrap;html=1;strokeWidth=1;fillColor=#dae8fc;strokeColor=#6c8ebf;fontSize=1;" vertex="1" parent="1">
          <mxGeometry x="322" y="607.5" width="70" height="25" as="geometry" />
        </mxCell>
        <mxCell id="l4oaAC5JZiK1c0ESy4eB-12" value="运营配置" style="rounded=1;whiteSpace=wrap;html=1;strokeWidth=1;fillColor=#dae8fc;strokeColor=#6c8ebf;fontSize=1;" vertex="1" parent="1">
          <mxGeometry x="412" y="607.5" width="70" height="25" as="geometry" />
        </mxCell>
        <mxCell id="l4oaAC5JZiK1c0ESy4eB-13" value="......" style="text;html=1;strokeColor=none;fillColor=none;align=center;verticalAlign=middle;whiteSpace=wrap;rounded=0;fontSize=1;" vertex="1" parent="1">
          <mxGeometry x="504" y="610" width="40" height="20" as="geometry" />
        </mxCell>
        <mxCell id="l4oaAC5JZiK1c0ESy4eB-14" value="" style="rounded=0;whiteSpace=wrap;html=1;fillColor=#fff2cc;strokeColor=#d6b656;" vertex="1" parent="1">
          <mxGeometry x="130" y="530" width="420" height="43" as="geometry" />
        </mxCell>
        <mxCell id="l4oaAC5JZiK1c0ESy4eB-15" value="&lt;b&gt;召回过滤&lt;/b&gt;" style="text;html=1;strokeColor=none;fillColor=none;align=center;verticalAlign=middle;whiteSpace=wrap;rounded=0;strokeWidth=1;" vertex="1" parent="1">
          <mxGeometry x="130" y="540" width="60" height="20" as="geometry" />
        </mxCell>
        <mxCell id="l4oaAC5JZiK1c0ESy4eB-16" value="&lt;font style=&quot;font-size: 11px&quot;&gt;已购买过滤&lt;/font&gt;" style="rounded=1;whiteSpace=wrap;html=1;strokeWidth=1;fillColor=#dae8fc;strokeColor=#6c8ebf;fontSize=2;" vertex="1" parent="1">
          <mxGeometry x="232" y="540" width="80" height="22.5" as="geometry" />
        </mxCell>
        <mxCell id="l4oaAC5JZiK1c0ESy4eB-17" value="&lt;font style=&quot;font-size: 11px&quot;&gt;学科课过滤&lt;/font&gt;" style="rounded=1;whiteSpace=wrap;html=1;strokeWidth=1;fillColor=#dae8fc;strokeColor=#6c8ebf;fontSize=2;" vertex="1" parent="1">
          <mxGeometry x="322" y="540" width="80" height="22.5" as="geometry" />
        </mxCell>
        <mxCell id="l4oaAC5JZiK1c0ESy4eB-18" value="&lt;span style=&quot;font-size: 11px&quot;&gt;免费课过滤&lt;/span&gt;" style="rounded=1;whiteSpace=wrap;html=1;strokeWidth=1;fillColor=#dae8fc;strokeColor=#6c8ebf;fontSize=2;" vertex="1" parent="1">
          <mxGeometry x="417" y="540" width="80" height="22.5" as="geometry" />
        </mxCell>
        <mxCell id="l4oaAC5JZiK1c0ESy4eB-22" value="......" style="text;html=1;strokeColor=none;fillColor=none;align=center;verticalAlign=middle;whiteSpace=wrap;rounded=0;fontSize=1;" vertex="1" parent="1">
          <mxGeometry x="504" y="541.5" width="40" height="20" as="geometry" />
        </mxCell>
        <mxCell id="l4oaAC5JZiK1c0ESy4eB-23" value="" style="rounded=0;whiteSpace=wrap;html=1;fillColor=#fff2cc;strokeColor=#d6b656;" vertex="1" parent="1">
          <mxGeometry x="130" y="460" width="420" height="43" as="geometry" />
        </mxCell>
        <mxCell id="l4oaAC5JZiK1c0ESy4eB-24" value="&lt;b&gt;确定话题和课程&lt;/b&gt;" style="text;html=1;strokeColor=none;fillColor=none;align=center;verticalAlign=middle;whiteSpace=wrap;rounded=0;strokeWidth=1;" vertex="1" parent="1">
          <mxGeometry x="130" y="471.5" width="90" height="20" as="geometry" />
        </mxCell>
        <mxCell id="l4oaAC5JZiK1c0ESy4eB-25" value="&lt;span style=&quot;font-size: 11px&quot;&gt;确定话题&lt;/span&gt;" style="rounded=1;whiteSpace=wrap;html=1;strokeWidth=1;fillColor=#dae8fc;strokeColor=#6c8ebf;fontSize=2;" vertex="1" parent="1">
          <mxGeometry x="260" y="470.25" width="80" height="22.5" as="geometry" />
        </mxCell>
        <mxCell id="l4oaAC5JZiK1c0ESy4eB-26" value="&lt;span style=&quot;font-size: 11px&quot;&gt;确定话题所属课程&lt;/span&gt;" style="rounded=1;whiteSpace=wrap;html=1;strokeWidth=1;fillColor=#dae8fc;strokeColor=#6c8ebf;fontSize=2;" vertex="1" parent="1">
          <mxGeometry x="380" y="469" width="102" height="22.5" as="geometry" />
        </mxCell>
        <mxCell id="l4oaAC5JZiK1c0ESy4eB-27" value="" style="rounded=0;whiteSpace=wrap;html=1;fillColor=#fff2cc;strokeColor=#d6b656;" vertex="1" parent="1">
          <mxGeometry x="130" y="390" width="420" height="43" as="geometry" />
        </mxCell>
        <mxCell id="l4oaAC5JZiK1c0ESy4eB-28" value="&lt;b&gt;排序&lt;/b&gt;" style="text;html=1;strokeColor=none;fillColor=none;align=center;verticalAlign=middle;whiteSpace=wrap;rounded=0;strokeWidth=1;" vertex="1" parent="1">
          <mxGeometry x="130" y="401.5" width="60" height="20" as="geometry" />
        </mxCell>
        <mxCell id="l4oaAC5JZiK1c0ESy4eB-29" value="&lt;span style=&quot;font-size: 11px&quot;&gt;按召回优先级穿插排序&lt;/span&gt;" style="rounded=1;whiteSpace=wrap;html=1;strokeWidth=1;fillColor=#dae8fc;strokeColor=#6c8ebf;fontSize=2;" vertex="1" parent="1">
          <mxGeometry x="264" y="400.5" width="138" height="22.5" as="geometry" />
        </mxCell>
        <mxCell id="l4oaAC5JZiK1c0ESy4eB-30" value="" style="rounded=0;whiteSpace=wrap;html=1;fillColor=#fff2cc;strokeColor=#d6b656;" vertex="1" parent="1">
          <mxGeometry x="127.5" y="320" width="420" height="43" as="geometry" />
        </mxCell>
        <mxCell id="l4oaAC5JZiK1c0ESy4eB-31" value="&lt;b&gt;重排&lt;/b&gt;" style="text;html=1;strokeColor=none;fillColor=none;align=center;verticalAlign=middle;whiteSpace=wrap;rounded=0;strokeWidth=1;" vertex="1" parent="1">
          <mxGeometry x="127.5" y="331.5" width="60" height="20" as="geometry" />
        </mxCell>
        <mxCell id="l4oaAC5JZiK1c0ESy4eB-32" value="&lt;span style=&quot;font-size: 11px&quot;&gt;类目打散&lt;/span&gt;" style="rounded=1;whiteSpace=wrap;html=1;strokeWidth=1;fillColor=#dae8fc;strokeColor=#6c8ebf;fontSize=2;" vertex="1" parent="1">
          <mxGeometry x="232" y="330.5" width="80" height="22.5" as="geometry" />
        </mxCell>
        <mxCell id="l4oaAC5JZiK1c0ESy4eB-33" value="&lt;span style=&quot;font-size: 11px&quot;&gt;兜底策略&lt;/span&gt;" style="rounded=1;whiteSpace=wrap;html=1;strokeWidth=1;fillColor=#dae8fc;strokeColor=#6c8ebf;fontSize=2;" vertex="1" parent="1">
          <mxGeometry x="332" y="330.25" width="80" height="22.5" as="geometry" />
        </mxCell>
        <mxCell id="l4oaAC5JZiK1c0ESy4eB-34" value="&lt;span style=&quot;font-size: 11px&quot;&gt;裂变课插入&lt;/span&gt;" style="rounded=1;whiteSpace=wrap;html=1;strokeWidth=1;fillColor=#dae8fc;strokeColor=#6c8ebf;fontSize=2;" vertex="1" parent="1">
          <mxGeometry x="430" y="330.25" width="80" height="22.5" as="geometry" />
        </mxCell>
        <mxCell id="l4oaAC5JZiK1c0ESy4eB-36" value="" style="shape=flexArrow;endArrow=classic;html=1;fontSize=1;exitX=0.5;exitY=0;exitDx=0;exitDy=0;verticalAlign=middle;entryX=0.5;entryY=1;entryDx=0;entryDy=0;endWidth=13.714285714285714;endSize=4.525714285714286;fontColor=#7EA6E0;strokeColor=#7397CC;" edge="1" parent="1" source="l4oaAC5JZiK1c0ESy4eB-5" target="l4oaAC5JZiK1c0ESy4eB-14">
          <mxGeometry width="50" height="50" relative="1" as="geometry">
            <mxPoint x="308" y="576.5" as="sourcePoint" />
            <mxPoint x="340" y="580" as="targetPoint" />
          </mxGeometry>
        </mxCell>
        <mxCell id="l4oaAC5JZiK1c0ESy4eB-38" value="" style="shape=flexArrow;endArrow=classic;html=1;fontSize=1;exitX=0.5;exitY=0;exitDx=0;exitDy=0;verticalAlign=middle;entryX=0.5;entryY=1;entryDx=0;entryDy=0;endWidth=13.714285714285714;endSize=4.525714285714286;fontColor=#7EA6E0;strokeColor=#7397CC;" edge="1" parent="1" source="l4oaAC5JZiK1c0ESy4eB-14" target="l4oaAC5JZiK1c0ESy4eB-23">
          <mxGeometry width="50" height="50" relative="1" as="geometry">
            <mxPoint x="392" y="530" as="sourcePoint" />
            <mxPoint x="392" y="503" as="targetPoint" />
          </mxGeometry>
        </mxCell>
        <mxCell id="l4oaAC5JZiK1c0ESy4eB-39" value="" style="shape=flexArrow;endArrow=classic;html=1;fontSize=1;exitX=0.5;exitY=0;exitDx=0;exitDy=0;verticalAlign=middle;entryX=0.5;entryY=1;entryDx=0;entryDy=0;endWidth=13.714285714285714;endSize=4.525714285714286;fontColor=#7EA6E0;strokeColor=#7397CC;" edge="1" parent="1">
          <mxGeometry width="50" height="50" relative="1" as="geometry">
            <mxPoint x="337.21" y="460" as="sourcePoint" />
            <mxPoint x="337.21" y="433" as="targetPoint" />
          </mxGeometry>
        </mxCell>
        <mxCell id="l4oaAC5JZiK1c0ESy4eB-40" value="" style="shape=flexArrow;endArrow=classic;html=1;fontSize=1;exitX=0.5;exitY=0;exitDx=0;exitDy=0;verticalAlign=middle;entryX=0.5;entryY=1;entryDx=0;entryDy=0;endWidth=13.714285714285714;endSize=4.525714285714286;fontColor=#7EA6E0;strokeColor=#7397CC;" edge="1" parent="1">
          <mxGeometry width="50" height="50" relative="1" as="geometry">
            <mxPoint x="337.21000000000004" y="390" as="sourcePoint" />
            <mxPoint x="337.21000000000004" y="363" as="targetPoint" />
          </mxGeometry>
        </mxCell>
      </root>
    </mxGraphModel>
  </diagram>
</mxfile>
